<svg width="60" height="60" viewBox="0 0 60 60" fill="none" xmlns="http://www.w3.org/2000/svg">
<path fill-rule="evenodd" clip-rule="evenodd" d="M27.2463 21.7078C26.3486 20.8101 24.893 20.8101 23.995 21.7078L10.6617 35.0411C9.76422 35.9388 9.76422 37.3944 10.6617 38.2924C11.1107 38.7411 11.6992 38.9655 12.2874 38.9655C12.8757 38.9655 13.464 38.7411 13.913 38.2924L27.2463 24.959C28.144 24.0611 28.144 22.6055 27.2463 21.7078" fill="#A8E490"/>
<path fill-rule="evenodd" clip-rule="evenodd" d="M38.2922 21.7078C37.3945 20.8101 35.9389 20.8101 35.041 21.7078L21.7076 35.0411C20.8102 35.9388 20.8102 37.3944 21.7076 38.2924C22.1566 38.7411 22.7451 38.9655 23.3334 38.9655C23.9217 38.9655 24.5099 38.7411 24.9589 38.2924L38.2922 24.959C39.1899 24.0611 39.1899 22.6055 38.2922 21.7078" fill="#A8E490"/>
<path fill-rule="evenodd" clip-rule="evenodd" d="M46.0871 21.7078L32.7537 35.0411C31.856 35.9388 31.856 37.3944 32.7537 38.2924C33.2027 38.7411 33.791 38.9655 34.3792 38.9655C34.9675 38.9655 35.556 38.7411 36.005 38.2924L49.3383 24.959C50.2358 24.0611 50.2358 22.6055 49.3383 21.7078C48.4404 20.8101 46.9848 20.8101 46.0871 21.7078" fill="#A8E490"/>
<path fill-rule="evenodd" clip-rule="evenodd" d="M30 55.4023C15.9931 55.4023 4.5977 44.0069 4.5977 30C4.5977 15.9931 15.9931 4.5977 30 4.5977C44.0069 4.5977 55.4023 15.9931 55.4023 30C55.4023 44.0069 44.0069 55.4023 30 55.4023M30 0C13.4579 0 0 13.4579 0 30C0 46.5421 13.4579 60 30 60C46.5421 60 60 46.5421 60 30C60 13.4579 46.5421 0 30 0" fill="#A8E490"/>
</svg>
