<svg width="21" height="23" viewBox="0 0 21 23" fill="none" xmlns="http://www.w3.org/2000/svg">
<path fill-rule="evenodd" clip-rule="evenodd" d="M17.1857 14.5417C17.1857 13.8116 17.7777 13.2198 18.5077 13.2198C19.2377 13.2198 19.8296 13.8116 19.8296 14.5417V21.1516C19.8296 21.8818 19.2377 22.4736 18.5077 22.4736H1.32198C0.591981 22.4736 0 21.8818 0 21.1516V1.32198C0 0.591849 0.591981 0 1.32198 0H7.93186C8.66185 0 9.25384 0.591849 9.25384 1.32198C9.25384 2.0521 8.66185 2.64395 7.93186 2.64395H2.64395V19.8296H17.1857V14.5417ZM9.78267 12.5588H10.7173L17.8085 5.46769L16.8736 4.53293L9.78267 11.624V12.5588ZM17.8085 1.72862L20.6128 4.53306C21.1291 5.04929 21.1291 5.88623 20.6128 6.4026L12.1998 14.8155C11.9518 15.0634 11.6156 15.2027 11.265 15.2027H8.46069C7.73056 15.2027 7.13871 14.6109 7.13871 13.8808V11.0764C7.13871 10.7257 7.27792 10.3895 7.52579 10.1415L15.9388 1.72862C16.1868 1.48075 16.523 1.34141 16.8736 1.34141C17.2243 1.34141 17.5605 1.48075 17.8085 1.72862Z" fill="#A8E490"/>
</svg>
