<svg width="23" height="23" viewBox="0 0 23 23" fill="none" xmlns="http://www.w3.org/2000/svg">
<path fill-rule="evenodd" clip-rule="evenodd" d="M-0.000244141 11.4994C-0.000244141 5.14837 5.14876 0.000366211 11.4998 0.000366211C17.8518 0.000366211 22.9998 5.14837 22.9998 11.4994C22.9998 17.8514 17.8518 22.9994 11.4998 22.9994C5.14876 22.9994 -0.000244141 17.8514 -0.000244141 11.4994ZM20.4998 11.4994C20.4998 6.53737 16.4628 2.50037 11.4998 2.50037C6.53776 2.50037 2.49976 6.53737 2.49976 11.4994C2.49976 16.4624 6.53776 20.4994 11.4998 20.4994C16.4628 20.4994 20.4998 16.4624 20.4998 11.4994ZM13.4398 17.6801L13.4358 9.30107C13.4358 8.61107 12.8758 8.05107 12.1858 8.05107H10.1858C9.49476 8.05107 8.93576 8.61107 8.93576 9.30107C8.93576 9.99207 9.49476 10.5511 10.1858 10.5511H10.9358L10.9398 17.6801C10.9398 18.3701 11.4998 18.9301 12.1898 18.9301C12.8798 18.9301 13.4398 18.3701 13.4398 17.6801ZM12.0705 6.18407C11.8305 6.42407 11.5205 6.55407 11.1805 6.55407C10.8505 6.55407 10.5405 6.42407 10.3005 6.18407C10.0705 5.94407 9.94046 5.63407 9.94046 5.30407C9.94046 4.97407 10.0705 4.64407 10.3005 4.41407C10.7705 3.95407 11.6005 3.95407 12.0705 4.41407C12.3005 4.65407 12.4305 4.97407 12.4305 5.30407C12.4305 5.63407 12.3005 5.94407 12.0705 6.18407Z" fill="#A8E490"/>
</svg>
