<svg width="49" height="49" viewBox="0 0 49 49" fill="none" xmlns="http://www.w3.org/2000/svg">
<g filter="url(#filter0_d)">
<path fill-rule="evenodd" clip-rule="evenodd" d="M0.99994 23.4999C0.99994 10.5212 11.5212 -6.03517e-05 24.4999 -6.03517e-05C37.4786 -6.03517e-05 47.9999 10.5212 47.9999 23.4999C47.9999 36.4786 37.4786 46.9999 24.4999 46.9999C11.5212 46.9999 0.99994 36.4786 0.99994 23.4999Z" fill="#DD4B39"/>
</g>
<path fill-rule="evenodd" clip-rule="evenodd" d="M23.462 23.923C23.474 24.155 24.137 24.912 24.866 25.428C26.569 26.633 27.201 27.812 27.201 29.784C27.201 31.84 25.639 33.62 23.22 34.322C22.444 34.546 21.606 34.66 20.726 34.66C19.746 34.66 18.803 34.547 17.926 34.325C16.225 33.896 14.967 33.082 14.382 32.036C14.129 31.582 14 31.099 14 30.598C14 30.082 14.123 29.561 14.366 29.043C15.299 27.058 17.754 25.723 20.474 25.723H20.553C20.331 25.334 20.223 24.932 20.223 24.507C20.223 24.296 20.251 24.082 20.307 23.862C17.453 23.797 15.32 21.708 15.32 18.953C15.32 17.008 16.873 15.113 19.098 14.348C19.764 14.118 20.442 14 21.109 14H27.209C27.418 14 27.602 14.135 27.666 14.332C27.731 14.53 27.659 14.747 27.49 14.868L26.126 15.857C26.044 15.915 25.946 15.948 25.844 15.948H25.356C25.987 16.703 26.357 17.78 26.357 18.992C26.357 20.328 25.68 21.594 24.45 22.556C23.5 23.296 23.462 23.498 23.462 23.923ZM20.278 15.824C19.801 15.824 19.375 16.019 19.051 16.39C18.549 16.963 18.336 17.87 18.469 18.879C18.705 20.684 20.023 22.244 21.344 22.284H21.365H21.366C21.864 22.284 22.282 22.089 22.608 21.718C23.116 21.138 23.341 20.186 23.208 19.173C22.971 17.367 21.681 15.865 20.332 15.824H20.278ZM17.16 29.943C17.16 28.509 18.984 27.25 21.06 27.25H21.116C21.568 27.255 22.008 27.322 22.425 27.45C22.567 27.548 22.705 27.642 22.837 27.731L22.8421 27.7345C23.8012 28.3885 24.4343 28.8202 24.612 29.514C24.653 29.689 24.674 29.864 24.674 30.033C24.674 31.819 23.341 32.726 20.713 32.726C18.721 32.726 17.16 31.503 17.16 29.943ZM34.0002 22.0004H37.0002V24.0004H34.0002V27.0004H32.0002V24.0004H29.0002V22.0004H32.0002V19.0004H34.0002V22.0004Z" fill="white"/>
<defs>
<filter id="filter0_d" x="0" y="0" width="49" height="49" filterUnits="userSpaceOnUse" color-interpolation-filters="sRGB">
<feFlood flood-opacity="0" result="BackgroundImageFix"/>
<feColorMatrix in="SourceAlpha" type="matrix" values="0 0 0 0 0 0 0 0 0 0 0 0 0 0 0 0 0 0 127 0"/>
<feOffset dy="1"/>
<feGaussianBlur stdDeviation="0.5"/>
<feColorMatrix type="matrix" values="0 0 0 0 0 0 0 0 0 0 0 0 0 0 0 0 0 0 0.11 0"/>
<feBlend mode="normal" in2="BackgroundImageFix" result="effect1_dropShadow"/>
<feBlend mode="normal" in="SourceGraphic" in2="effect1_dropShadow" result="shape"/>
</filter>
</defs>
</svg>
