<svg width="25" height="25" viewBox="0 0 25 25" fill="none" xmlns="http://www.w3.org/2000/svg">
<path fill-rule="evenodd" clip-rule="evenodd" d="M23.0758 10.627H14.2708V1.822C14.2708 0.817 13.4528 0 12.4488 0C11.4438 0 10.6268 0.817 10.6268 1.822V10.627H1.82176C0.817756 10.627 -0.000244141 11.444 -0.000244141 12.449C-0.000244141 13.454 0.817756 14.272 1.82176 14.272H10.6268V23.076C10.6268 24.081 11.4438 24.898 12.4488 24.898C13.4528 24.898 14.2708 24.081 14.2708 23.076V14.272H23.0758C24.0798 14.272 24.8978 13.454 24.8978 12.449C24.8978 11.444 24.0798 10.627 23.0758 10.627Z" fill="#A8E490"/>
</svg>
