<svg width="19" height="24" viewBox="0 0 19 24" fill="none" xmlns="http://www.w3.org/2000/svg">
<path fill-rule="evenodd" clip-rule="evenodd" d="M2.60004 19.6037L3.14113 11.268C3.14276 11.241 3.14364 11.2138 3.14364 11.1867C3.14364 8.33264 4.16331 6.31468 6.1741 5.18875C7.7546 4.30376 9.40098 4.27924 9.41204 4.27911H9.46322C9.4797 4.27924 11.1261 4.30376 12.7067 5.18875C14.7175 6.31468 15.7372 8.33264 15.7372 11.1867C15.7372 11.2138 15.7379 11.241 15.7398 11.268L16.2808 19.6037H2.60004ZM18.8629 20.5594L18.2521 11.1449C18.2382 6.33693 15.8422 4.02787 13.8311 2.93703C13.0997 2.54031 12.3687 2.27775 11.7195 2.1041C11.6763 1.56251 11.4462 1.0589 11.0579 0.670725C10.6254 0.238162 10.0503 0 9.4387 0C8.82708 0 8.25192 0.238162 7.81935 0.670725C7.41999 1.07009 7.20069 1.5815 7.15869 2.10472C6.51022 2.2785 5.78002 2.54081 5.04944 2.93703C3.03852 4.02787 0.642567 6.33681 0.62886 11.1449L0.00264865 20.7931C-0.0247638 21.2152 0.161968 21.6229 0.499468 21.8779C0.720906 22.0452 0.987737 22.1321 1.25759 22.1321C1.31882 22.1321 1.38006 22.1275 1.44105 22.1186H6.59359C7.07934 23.225 8.1849 24 9.46863 24C10.7525 24 11.858 23.225 12.3438 22.1186H17.4398C17.7561 22.1653 18.0837 22.0902 18.352 21.8994L18.3709 21.886C18.7939 21.5852 18.9863 21.0577 18.8629 20.5594Z" fill="#A8E490"/>
</svg>
