<svg width="19" height="19" viewBox="0 0 19 19" fill="none" xmlns="http://www.w3.org/2000/svg">
<path fill-rule="evenodd" clip-rule="evenodd" d="M1.83051 7.99421C1.83051 4.59559 4.5955 1.83051 7.99421 1.83051C11.3928 1.83051 14.1578 4.59559 14.1578 7.99421C14.1578 11.3929 11.3928 14.1579 7.99421 14.1579C4.5955 14.1579 1.83051 11.3929 1.83051 7.99421ZM18.6319 17.3786L14.2361 12.9827C15.3319 11.6143 15.9883 9.87963 15.9883 7.99421C15.9883 3.58615 12.4022 0 7.99421 0C3.58615 0 0 3.58615 0 7.99421C0 12.4022 3.58615 15.9884 7.99421 15.9884C9.85867 15.9884 11.5761 15.3466 12.9372 14.2727L17.3376 18.673C17.5162 18.8517 17.7506 18.941 17.9848 18.941C18.219 18.941 18.4533 18.8517 18.6319 18.673C18.9894 18.3156 18.9894 17.736 18.6319 17.3786Z" fill="#444444"/>
</svg>
