<svg width="17" height="17" viewBox="0 0 17 17" fill="none" xmlns="http://www.w3.org/2000/svg">
<path fill-rule="evenodd" clip-rule="evenodd" d="M11.3333 7.79167C10.552 7.79167 9.91667 7.15629 9.91667 6.375C9.91667 5.59371 10.552 4.95833 11.3333 4.95833C12.1146 4.95833 12.75 5.59371 12.75 6.375C12.75 7.15629 12.1146 7.79167 11.3333 7.79167ZM12.0417 10.625C12.0417 12.5779 10.4529 14.1667 8.5 14.1667C6.54713 14.1667 4.95833 12.5779 4.95833 10.625H6.375C6.375 11.7966 7.32842 12.75 8.5 12.75C9.67158 12.75 10.625 11.7966 10.625 10.625H12.0417ZM4.25 6.375C4.25 5.59371 4.88538 4.95833 5.66667 4.95833C6.44796 4.95833 7.08333 5.59371 7.08333 6.375C7.08333 7.15629 6.44796 7.79167 5.66667 7.79167C4.88538 7.79167 4.25 7.15629 4.25 6.375ZM8.5 0C3.81296 0 0 3.81296 0 8.5C0 13.187 3.81296 17 8.5 17C13.187 17 17 13.187 17 8.5C17 3.81296 13.187 0 8.5 0Z" fill="#444444"/>
</svg>
