<svg width="18" height="22" viewBox="0 0 18 22" fill="none" xmlns="http://www.w3.org/2000/svg">
<path fill-rule="evenodd" clip-rule="evenodd" d="M14.4 9.16667C14.4 12.1999 11.9781 14.6667 9 14.6667C6.0219 14.6667 3.6 12.1999 3.6 9.16667V5.5C3.6 2.46675 6.0219 0 9 0C11.9781 0 14.4 2.46675 14.4 5.5V9.16667ZM16.2 9.16667C16.2 8.65975 16.6032 8.25 17.1 8.25C17.5968 8.25 18 8.65975 18 9.16667C18 13.9113 14.4414 17.8255 9.9 18.2866V20.1667H13.5C13.9968 20.1667 14.4 20.5764 14.4 21.0833C14.4 21.5903 13.9968 22 13.5 22H4.5C4.0032 22 3.6 21.5903 3.6 21.0833C3.6 20.5764 4.0032 20.1667 4.5 20.1667H8.1V18.2866C3.5586 17.8255 0 13.9113 0 9.16667C0 8.65975 0.4032 8.25 0.9 8.25C1.3968 8.25 1.8 8.65975 1.8 9.16667C1.8 13.2101 5.0301 16.5 9 16.5C12.9699 16.5 16.2 13.2101 16.2 9.16667Z" fill="#444444"/>
</svg>
